<?xml version="1.0" encoding="utf-8"?>
<!-- Generator: Adobe Illustrator 19.0.0, SVG Export Plug-In . SVG Version: 6.00 Build 0)  -->
<svg version="1.1" id="Layer_1" xmlns="http://www.w3.org/2000/svg" xmlns:xlink="http://www.w3.org/1999/xlink" x="0px" y="0px"
	 viewBox="0 0 520.1 153.9" style="enable-background:new 0 0 520.1 153.9;" xml:space="preserve">
<style type="text/css">
	.st0{fill:#FFFFFF;}
</style>
<g id="XMLID_43_">
	<path id="XMLID_54_" class="st0" d="M138.1,44.3c-0.6-9.4-4.7-17.9-11.2-24c-6.5-6.1-15.2-9.9-24.8-9.9c-9.7,0-18.4,3.8-24.9,10
		c-6.9,6.6-11.2,15.9-11.2,26.1v34.8v26.1c0,13.8-11.1,24.9-24.9,24.9c-13.8,0-24.9-11.2-24.9-24.9V81.3V16c0-3.1-2.5-5.6-5.6-5.6
		S4.9,12.9,4.9,16v91.4c0,10.3,4.3,19.6,11.2,26.1c6.5,6.2,15.2,10,24.9,10c9.7,0,18.4-3.8,24.9-10c6.9-6.6,11.2-15.9,11.2-26.1
		V72.6c6.5,6.2,15.3,10,24.9,10c9.6,0,18.4-3.8,24.8-9.9c6.4-6.1,10.6-14.6,11.2-24c0-0.7,0.1-1.4,0.1-2.2
		C138.1,45.8,138.1,45.1,138.1,44.3z M102,71.4c-13.8,0-24.9-11.1-24.9-24.9c0-13.8,11.2-24.9,24.9-24.9c13.1,0,23.9,10.2,24.8,23.1
		v3.6C126,61.2,115.2,71.4,102,71.4z"/>
	<path id="XMLID_53_" class="st0" d="M221.6,20.4c-6.5-6.2-15.2-10-24.9-10c-9.7,0-18.4,3.8-24.9,10c-6.9,6.6-11.2,15.9-11.2,26.1
		V138c0,3.1,2.5,5.6,5.6,5.6c3.1,0,5.6-2.5,5.6-5.6V72.6V46.5c0-13.8,11.2-24.9,24.9-24.9c13.8,0,24.9,11.2,24.9,24.9v26.1V138
		c0,3.1,2.5,5.6,5.6,5.6c3.1,0,5.6-2.5,5.6-5.6V46.5C232.8,36.2,228.5,26.9,221.6,20.4z"/>
	<path id="XMLID_50_" class="st0" d="M300.4,20.4c-6.5-6.2-15.2-10-24.9-10c-9.7,0-18.4,3.8-24.9,10c-6.9,6.6-11.2,15.9-11.2,26.1
		v60.9c0,10.3,4.3,19.6,11.2,26.1c6.5,6.2,15.2,10,24.9,10c9.7,0,18.4-3.8,24.9-10c6.9-6.6,11.2-15.9,11.2-26.1V46.5
		C311.6,36.2,307.3,26.9,300.4,20.4z M300.4,72.6v8.7v26.1c0,13.8-11.2,24.9-24.9,24.9c-13.8,0-24.9-11.2-24.9-24.9V81.3v-8.7V46.5
		c0-13.8,11.2-24.9,24.9-24.9c13.8,0,24.9,11.2,24.9,24.9V72.6z"/>
	<path id="XMLID_47_" class="st0" d="M378.4,81.3c-1.7-1.6-3.6-3.1-5.5-4.3c2-1.3,3.8-2.7,5.5-4.3c6.9-6.6,11.2-15.9,11.2-26.1
		c0-10.3-4.3-19.6-11.2-26.1c-6.5-6.2-15.3-10-24.9-10s-18.4,3.8-24.9,10c-6.9,6.6-11.2,15.9-11.2,26.1V138c0,3.1,2.5,5.6,5.6,5.6
		c3.1,0,5.6-2.5,5.6-5.6v-4.4v-26.1c0-13.3,10.4-24.1,23.5-24.9h0c0.5,0,0.9,0,1.4,0c0.5,0,0.9,0,1.4,0h0
		c13.1,0.7,23.5,11.6,23.5,24.9v26.1v4.4c0,3.1,2.5,5.6,5.6,5.6s5.6-2.5,5.6-5.6v-30.5C389.6,97.2,385.3,87.9,378.4,81.3z
		 M354.8,71.4c-0.5,0-0.9,0-1.4,0c-0.5,0-0.9,0-1.4,0h0c-6.6,0.3-12.7,2.3-18,5.6h0c-2,1.3-3.8,2.7-5.5,4.3v-8.7V46.5
		c0-13.8,11.2-24.9,24.9-24.9c13.8,0,24.9,11.2,24.9,24.9C378.4,59.8,368,70.7,354.8,71.4L354.8,71.4z"/>
	<path id="XMLID_46_" class="st0" d="M447.9,10.4h-92.2v11.2h46.7c3.2,0,5.7,2.6,5.7,5.7V138c0,3.1,2.5,5.6,5.6,5.6
		c3.1,0,5.6-2.5,5.6-5.6V27.3c0-3.2,2.6-5.7,5.7-5.7h22.9c3.1,0,5.6-2.5,5.6-5.6S451,10.4,447.9,10.4z"/>
	<path id="XMLID_45_" class="st0" d="M515.5,48.7c0-0.7,0.1-1.4,0.1-2.2c0-0.7,0-1.5-0.1-2.2V16.9c0-0.3,0.1-0.6,0.1-0.9
		c0-0.3,0-0.6-0.1-0.9c-0.4-2.7-2.7-4.8-5.6-4.8c-3.1,0-5.6,2.5-5.6,5.6v4.3v24.4v3.6c-0.9,12.5-10.9,22.4-23.4,23.1h0
		c-0.5,0-0.9,0-1.4,0c-0.5,0-0.9,0-1.4,0h0c-13.1-0.7-23.5-11.6-23.5-24.9V20.4V16c0-3.1-2.5-5.6-5.6-5.6c-3.1,0-5.6,2.5-5.6,5.6
		v30.5c0,10.3,4.3,19.6,11.2,26.1c1.7,1.6,3.6,3.1,5.5,4.3c-2,1.3-3.8,2.7-5.5,4.3c-6.9,6.6-11.2,15.9-11.2,26.1V138
		c0,3.1,2.5,5.6,5.6,5.6s5.6-2.5,5.6-5.6v-4.4v-26.1c0-13.3,10.4-24.1,23.5-24.9h0c0.5,0,0.9,0,1.4,0c0.5,0,0.9,0,1.4,0h0
		c12.5,0.7,22.5,10.6,23.4,23.1v3.6v24.4v4.3c0,3.1,2.5,5.6,5.6,5.6c3.1,0,5.6-2.5,5.6-5.6v-28.3c0-0.7,0.1-1.4,0.1-2.2
		s0-1.5-0.1-2.2c-0.6-9.4-4.7-17.9-11.2-24c-1.7-1.6-3.5-3-5.5-4.3c2-1.2,3.8-2.7,5.5-4.3C510.7,66.6,514.9,58.1,515.5,48.7z"/>
	<circle id="XMLID_44_" class="st0" cx="129.7" cy="139.4" r="4.1"/>
</g>
</svg>
