<?xml version="1.0" encoding="utf-8"?>
<!-- Generator: Adobe Illustrator 19.0.0, SVG Export Plug-In . SVG Version: 6.00 Build 0)  -->
<svg version="1.1" id="Layer_1" xmlns="http://www.w3.org/2000/svg" xmlns:xlink="http://www.w3.org/1999/xlink" x="0px" y="0px"
	 viewBox="0 0 87 87" style="enable-background:new 0 0 87 87;" xml:space="preserve">
<style type="text/css">
	.st0{fill:#FFFFFF;}
</style>
<g id="XMLID_1_">
	<circle id="XMLID_6_" class="st0" cx="43.1" cy="82.7" r="2.6"/>
	<g id="XMLID_2_">
		<path id="XMLID_23_" class="st0" d="M84.9,23c-0.3-5.9-3-11.3-7-15.1C73.8,4,68.3,1.7,62.2,1.7c-6.1,0-11.6,2.4-15.6,6.3
			c-4.3,4.1-7,10-7,16.4v21.9v16.4c0,8.6-7,15.6-15.6,15.6c-8.6,0-15.6-7-15.6-15.6V46.2v-41c0-1.9-1.6-3.5-3.5-3.5S1.2,3.3,1.2,5.2
			v57.4c0,6.5,2.7,12.3,7,16.4c4.1,3.9,9.6,6.3,15.6,6.3c6.1,0,11.6-2.4,15.6-6.3c4.3-4.1,7-10,7-16.4V40.8V24.4
			c0-8.6,7-15.6,15.6-15.6c8.3,0,15,6.4,15.6,14.5v2.3v15.3v41c0,1.9,1.6,3.5,3.5,3.5c1.9,0,3.5-1.6,3.5-3.5V25.7c0-0.5,0-0.9,0-1.4
			S84.9,23.4,84.9,23z"/>
	</g>
</g>
</svg>
