<?xml version="1.0" encoding="utf-8"?>
<!-- Generator: Adobe Illustrator 19.0.0, SVG Export Plug-In . SVG Version: 6.00 Build 0)  -->
<svg version="1.1" id="Layer_1" xmlns="http://www.w3.org/2000/svg" xmlns:xlink="http://www.w3.org/1999/xlink" x="0px" y="0px"
	 viewBox="-4 33 78.5 21" style="enable-background:new -4 33 78.5 21;" xml:space="preserve">
<style type="text/css">
	.st0{fill:#FFFFFF;}
</style>
<g id="XMLID_57_">
	<path id="XMLID_99_" class="st0" d="M35.7,40.7c-0.1-0.9-0.4-1.6-1-2.2s-1.4-0.9-2.3-0.9c-0.9,0-1.7,0.3-2.3,0.9s-1,1.5-1,2.4v3.2
		v2.4c0,1.3-1,2.3-2.3,2.3s-2.3-1-2.3-2.3v-2.4v-6c0-0.3-0.2-0.5-0.5-0.5s-0.5,0.2-0.5,0.5v8.4c0,0.9,0.4,1.8,1,2.4
		c0.6,0.6,1.4,0.9,2.3,0.9s1.7-0.3,2.3-0.9c0.6-0.6,1-1.5,1-2.4v-3.2c0.6,0.6,1.4,0.9,2.3,0.9c0.9,0,1.7-0.3,2.3-0.9
		c0.6-0.6,1-1.3,1-2.2c0-0.1,0-0.1,0-0.2S35.7,40.7,35.7,40.7z M32.4,43.2c-1.3,0-2.3-1-2.3-2.3c0-1.3,1-2.3,2.3-2.3
		c1.2,0,2.2,0.9,2.3,2.1V41C34.6,42.2,33.6,43.2,32.4,43.2z"/>
	<path id="XMLID_96_" class="st0" d="M43.3,38.5c-0.6-0.6-1.4-0.9-2.3-0.9c-0.9,0-1.7,0.3-2.3,0.9s-1,1.5-1,2.4v8.4
		c0,0.3,0.2,0.5,0.5,0.5s0.5-0.2,0.5-0.5v-6v-2.4c0-1.3,1-2.3,2.3-2.3s2.3,1,2.3,2.3v2.4v6c0,0.3,0.2,0.5,0.5,0.5s0.5-0.2,0.5-0.5
		v-8.4C44.4,39.9,44,39.1,43.3,38.5z"/>
	<path id="XMLID_93_" class="st0" d="M50.6,38.5c-0.6-0.6-1.4-0.9-2.3-0.9c-0.9,0-1.7,0.3-2.3,0.9s-1,1.5-1,2.4v5.6
		c0,0.9,0.4,1.8,1,2.4c0.6,0.6,1.4,0.9,2.3,0.9c0.9,0,1.7-0.3,2.3-0.9c0.6-0.6,1-1.5,1-2.4v-5.6C51.6,39.9,51.2,39.1,50.6,38.5z
		 M50.6,43.3v0.8v2.4c0,1.3-1,2.3-2.3,2.3s-2.3-1-2.3-2.3v-2.4v-0.8v-2.4c0-1.3,1-2.3,2.3-2.3s2.3,1,2.3,2.3V43.3z"/>
	<path id="XMLID_90_" class="st0" d="M57.7,44.1c-0.2-0.1-0.3-0.3-0.5-0.4c0.2-0.1,0.4-0.3,0.5-0.4c0.6-0.6,1-1.5,1-2.4
		s-0.4-1.8-1-2.4c-0.6-0.6-1.4-0.9-2.3-0.9c-0.9,0-1.7,0.3-2.3,0.9c-0.6,0.6-1,1.5-1,2.4v8.4c0,0.3,0.2,0.5,0.5,0.5s0.5-0.2,0.5-0.5
		v-0.4v-2.4c0-1.2,1-2.2,2.2-2.3l0,0h0.1h0.1l0,0c1.2,0.1,2.2,1.1,2.2,2.3v2.4v0.4c0,0.3,0.2,0.5,0.5,0.5s0.5-0.2,0.5-0.5v-2.8
		C58.8,45.5,58.4,44.7,57.7,44.1z M55.6,43.2L55.6,43.2h-0.2l0,0c-0.6,0-1.2,0.2-1.6,0.5l0,0c-0.2,0.1-0.4,0.2-0.5,0.4v-0.8v-2.4
		c0-1.3,1-2.3,2.3-2.3s2.3,1,2.3,2.3C57.7,42.1,56.8,43.1,55.6,43.2L55.6,43.2z"/>
	<path id="XMLID_86_" class="st0" d="M64.1,37.6h-8.5v1h4.3c0.3,0,0.5,0.2,0.5,0.5v10.2c0,0.3,0.2,0.5,0.5,0.5s0.5-0.2,0.5-0.5V39.1
		c0-0.3,0.2-0.5,0.5-0.5H64c0.3,0,0.5-0.2,0.5-0.5C64.6,37.8,64.4,37.6,64.1,37.6z"/>
	<path id="XMLID_76_" class="st0" d="M70.3,41.1c0-0.1,0-0.1,0-0.2s0-0.1,0-0.2v-2.5v-0.1V38c0-0.2-0.3-0.4-0.5-0.4
		c-0.3,0-0.5,0.2-0.5,0.5v0.4v2.2V41c-0.1,1.1-1,2.1-2.2,2.1l0,0H67h-0.1l0,0c-1.2-0.1-2.2-1.1-2.2-2.3v-2.3v-0.4
		c0-0.3-0.2-0.5-0.5-0.5s-0.5,0.2-0.5,0.5v2.8c0,0.9,0.4,1.8,1,2.4c0.2,0.1,0.3,0.3,0.5,0.4c-0.2,0.1-0.4,0.2-0.5,0.4
		c-0.6,0.6-1,1.5-1,2.4v2.8c0,0.3,0.2,0.5,0.5,0.5s0.5-0.2,0.5-0.5v-0.4v-2.4c0-1.2,1-2.2,2.2-2.3l0,0H67h0.1l0,0
		c1.1,0.1,2.1,1,2.2,2.1v0.3v2.2v0.4c0,0.3,0.2,0.5,0.5,0.5s0.5-0.2,0.5-0.5v-2.6c0-0.1,0-0.1,0-0.2c0-0.1,0-0.1,0-0.2
		c-0.1-0.9-0.4-1.6-1-2.2c-0.2-0.1-0.3-0.3-0.5-0.4c0.2-0.1,0.3-0.2,0.5-0.4C69.9,42.7,70.3,41.9,70.3,41.1z"/>
	<circle id="XMLID_62_" class="st0" cx="34.9" cy="49.4" r="0.4"/>
</g>
<g id="XMLID_106_">
	<circle id="XMLID_127_" class="st0" cx="10.2" cy="52" r="0.6"/>
	<g id="XMLID_125_">
		<path id="XMLID_126_" class="st0" d="M19.8,38.3c-0.1-1.4-0.7-2.6-1.6-3.5c-0.9-0.9-2.2-1.4-3.6-1.4s-2.7,0.5-3.6,1.4
			c-1,1-1.6,2.3-1.6,3.8v5v3.8c0,2-1.6,3.6-3.6,3.6s-3.6-1.6-3.6-3.6v-3.8v-9.4c0-0.4-0.4-0.8-0.8-0.8s-0.8,0.4-0.8,0.8v13.2
			c0,1.5,0.6,2.8,1.6,3.8c0.9,0.9,2.2,1.4,3.6,1.4s2.7-0.5,3.6-1.4c1-1,1.6-2.3,1.6-3.8v-5v-3.8c0-2,1.6-3.6,3.6-3.6
			c1.9,0,3.5,1.5,3.6,3.3v0.5v3.5v9.4c0,0.4,0.4,0.8,0.8,0.8s0.8-0.4,0.8-0.8V38.9c0-0.1,0-0.2,0-0.3C19.8,38.5,19.8,38.4,19.8,38.3
			z"/>
	</g>
</g>
</svg>
